# xmcd
#
# Track frame offsets:
#	150
#	15285
#	33720
#	52392
#	69265
#	86947
#	99840
#	112757
#	128982
#	141610
#	159845
#	180760
#	191217
#
# Disc length: 2767 seconds
#
# Revision: 1
# Processed by: cddbd v1.5.2PL0 Copyright (c) Steve Scherf et al.
# Submitted via: audiograbber 1.81.02
#
DISCID=ab0acd0d
DTITLE=Various Artistas - Originais em 3 CD's SERTANEJO
DYEAR=1900
DGENRE=
TTITLE0=Zeze de Camargo e Luciano - E o amor
TTITLE1=Zeze de Camargo e Luciano - Indiferenca
TTITLE2=Leonardo - Um Sonhador
TTITLE3=Leonardo ao Vivo - Cerveja
TTITLE4=Leandro and Leonardo - Dia do Rodeio
TTITLE5=Bruno and Marrone - Dormi na Praca
TTITLE6=Bruno and Marrone - Feriado NAcional
TTITLE7=Gian and Giovani - 1, 2, 3
TTITLE8=Gian and Giovani - Cai no Laco
TTITLE9=Chrystian and Ralf - Sonho de crianca
TTITLE10=Chrystian and Ralf - Yolanda
TTITLE11=Almir Sater - Hora do Clarao
TTITLE12=Sergio Reis - Chico Mineiro
EXTD=kiroiva@hotmail.com
EXTT0=
EXTT1=
EXTT2=
EXTT3=
EXTT4=
EXTT5=
EXTT6=
EXTT7=
EXTT8=
EXTT9=
EXTT10=
EXTT11=
EXTT12=
PLAYORDER=
